<svg width="49" height="58" viewBox="0 0 49 58" fill="none" xmlns="http://www.w3.org/2000/svg">
<g id="821133712">
<path id="&#60;Path&#62;" d="M44.182 15.4462C37.2361 11.116 32.0046 13.8732 27.6568 20.2712C30.4669 19.7056 33.2418 19.4759 35.999 19.688C25.695 26.2097 18.1658 36.7435 12.5454 49.999C13.1994 42.1341 14.6486 34.1277 17.3704 25.9269C15.3732 26.245 13.3761 26.952 11.3789 27.9418C13.4821 17.8322 17.6709 8.35887 25.4298 -0.000976562C34.4259 0.617617 40.3998 6.23798 44.182 15.4462Z" fill="#c183ff"/>
<g id="&#60;Path&#62;_2" filter="url(#filter0_d_1_86592)">
<path d="M26.0307 21.6852C23.9452 21.5615 21.8243 21.9149 19.6504 22.6396C24.3341 15.0751 29.2121 8.05845 34.7441 3.00366C38.8091 5.6371 41.9021 9.87888 44.182 15.4462C37.2361 11.1161 32.0046 13.8732 27.6568 20.2712C30.4669 19.7057 33.2418 19.4759 35.999 19.688C25.695 26.2097 18.1658 36.7435 12.5454 49.9991C15.4263 38.7937 19.7741 28.0125 26.0307 21.6852Z" fill="#6a08cd"/>
<path d="M26.3862 22.0367L27.1627 21.2514L26.0603 21.186C24.3155 21.0825 22.556 21.3017 20.7756 21.7788C25.1575 14.7867 29.7056 8.36931 34.7947 3.63706C38.2628 5.98942 41.0117 9.5872 43.1333 14.2746C40.0875 12.7099 37.3167 12.4797 34.7806 13.3635C31.9137 14.3626 29.4427 16.7535 27.2432 19.9902L26.5549 21.003L27.7554 20.7614C30.0092 20.3078 32.2332 20.0745 34.4383 20.1145C26.2318 25.6994 19.8427 33.8696 14.8018 43.9135C17.5904 35.092 21.3818 27.0977 26.3862 22.0367Z" stroke="black"/>
</g>
</g>
<defs>
<filter id="filter0_d_1_86592" x="8.54541" y="3.00366" width="39.6366" height="54.9954" filterUnits="userSpaceOnUse" color-interpolation-filters="sRGB">
<feFlood flood-opacity="0" result="BackgroundImageFix"/>
<feColorMatrix in="SourceAlpha" type="matrix" values="0 0 0 0 0 0 0 0 0 0 0 0 0 0 0 0 0 0 127 0" result="hardAlpha"/>
<feOffset dy="4"/>
<feGaussianBlur stdDeviation="2"/>
<feComposite in2="hardAlpha" operator="out"/>
<feColorMatrix type="matrix" values="0 0 0 0 0 0 0 0 0 0 0 0 0 0 0 0 0 0 0.25 0"/>
<feBlend mode="normal" in2="BackgroundImageFix" result="effect1_dropShadow_1_86592"/>
<feBlend mode="normal" in="SourceGraphic" in2="effect1_dropShadow_1_86592" result="shape"/>
</filter>
</defs>
</svg>
